<?xml version="1.0" standalone="no"?>
<!DOCTYPE svg PUBLIC "-//W3C//DTD SVG 20010904//EN"
 "http://www.w3.org/TR/2001/REC-SVG-20010904/DTD/svg10.dtd">
<svg version="1.0" xmlns="http://www.w3.org/2000/svg"
 width="1024.000000pt" height="1024.000000pt" viewBox="0 0 1024.000000 1024.000000"
 preserveAspectRatio="xMidYMid meet">
<metadata>
Created by potrace 1.11, written by Peter Selinger 2001-2013
</metadata>
<g transform="translate(0.000000,1024.000000) scale(0.100000,-0.100000)"
fill="#000000" stroke="none">
<path d="M4597 9174 c-1 -1 -20 -5 -42 -8 -35 -4 -78 -12 -110 -20 -5 -2 -23
-6 -40 -10 -16 -4 -37 -10 -45 -13 -8 -4 -17 -7 -20 -8 -53 -14 -223 -94 -228
-107 -2 -4 -8 -8 -14 -8 -9 0 -88 -51 -115 -75 -7 -5 -39 -32 -72 -60 -33 -27
-63 -58 -66 -67 -4 -10 -12 -18 -18 -19 -23 -1 -151 -188 -203 -298 -82 -173
-114 -309 -118 -506 -3 -144 13 -267 50 -385 10 -30 18 -57 19 -60 22 -71 130
-273 170 -316 5 -7 26 -31 45 -55 51 -64 147 -154 210 -197 30 -20 57 -41 58
-45 6 -13 244 -126 279 -133 18 -3 34 -11 34 -18 1 -6 2 -96 3 -200 1 -180 0
-189 -19 -196 -11 -4 -23 -6 -27 -3 -4 2 -16 0 -25 -6 -10 -5 -31 -11 -48 -14
-112 -18 -378 -127 -503 -204 -29 -18 -55 -33 -59 -33 -3 0 -21 -11 -39 -25
-18 -14 -37 -25 -43 -25 -6 0 -11 -4 -11 -8 0 -4 -12 -15 -27 -24 -16 -10 -41
-29 -58 -43 -16 -14 -50 -42 -74 -63 -122 -103 -296 -302 -352 -402 -8 -14
-16 -27 -19 -30 -18 -17 -138 -241 -145 -270 -1 -3 -6 -16 -12 -30 -36 -86
-42 -101 -42 -103 0 -1 -4 -15 -10 -30 -6 -16 -11 -36 -11 -46 0 -10 -3 -21
-7 -25 -4 -3 -8 -12 -9 -19 -8 -37 -13 -58 -17 -65 -3 -4 -8 -29 -11 -56 -4
-27 -9 -53 -12 -58 -3 -4 -7 -29 -9 -55 -3 -26 -8 -59 -11 -73 -3 -14 -8 -78
-10 -143 -2 -65 -6 -122 -9 -127 -4 -6 -3 -10 2 -10 4 0 8 -34 8 -75 l0 -75
-55 -38 c-30 -21 -107 -73 -170 -117 -63 -43 -135 -92 -160 -109 -25 -17 -47
-33 -50 -36 -14 -14 -102 -70 -109 -70 -5 0 -11 -3 -13 -7 -3 -9 -2 -8 -193
-138 -71 -49 -131 -93 -133 -97 -2 -4 -8 -8 -14 -8 -6 0 -27 -14 -48 -30 -21
-17 -42 -30 -47 -30 -4 0 -20 -11 -35 -25 -15 -14 -31 -25 -35 -25 -4 0 -19
-9 -33 -21 -14 -11 -61 -44 -105 -73 l-80 -54 -29 25 c-17 14 -39 29 -50 34
-12 5 -37 19 -56 30 -19 12 -42 22 -51 24 -9 2 -25 8 -35 13 -18 10 -34 16
-59 22 -5 1 -21 6 -34 11 -13 5 -40 12 -60 15 -20 4 -40 7 -46 8 -5 1 -14 4
-20 7 -14 7 -200 4 -265 -5 -76 -10 -182 -42 -260 -78 -36 -17 -67 -33 -70
-37 -3 -3 -21 -15 -40 -25 -19 -11 -40 -25 -47 -30 -7 -6 -37 -31 -67 -56 -30
-25 -55 -51 -55 -57 -1 -7 -5 -13 -11 -13 -5 0 -25 -21 -44 -47 -20 -27 -39
-52 -44 -58 -31 -40 -107 -198 -116 -242 -1 -10 -7 -27 -12 -38 -5 -11 -9
-119 -9 -240 0 -213 1 -222 27 -295 36 -103 78 -184 132 -257 44 -60 161 -179
194 -197 9 -5 19 -12 22 -15 5 -6 21 -16 87 -55 50 -28 187 -83 229 -90 16 -3
49 -9 74 -14 25 -4 73 -8 108 -8 34 1 62 -3 62 -7 0 -5 5 -5 11 -1 6 4 35 8
63 10 57 4 183 34 239 58 21 8 40 15 42 15 10 1 99 53 155 91 50 34 160 136
198 184 57 71 128 204 151 281 7 22 15 47 18 55 3 8 7 22 8 30 1 8 6 29 10 45
4 17 8 84 10 150 l3 120 84 57 c45 32 91 65 101 73 9 8 20 15 24 15 3 0 29 17
57 38 28 21 81 58 118 82 38 24 68 48 68 53 0 4 4 6 8 3 5 -3 21 6 37 20 16
14 45 35 65 46 19 12 37 25 40 28 10 12 132 90 141 90 5 0 9 4 9 8 0 4 18 19
40 32 22 14 40 28 40 33 0 4 4 7 10 7 11 0 113 71 118 82 2 5 9 8 14 8 6 0 35
18 64 40 29 22 56 40 59 40 4 0 13 7 21 15 20 19 37 11 53 -28 15 -34 120
-195 143 -218 8 -8 21 -25 30 -38 24 -34 147 -170 182 -201 16 -14 45 -40 64
-58 18 -17 36 -32 38 -32 3 0 36 -27 68 -55 32 -29 195 -131 277 -173 185 -96
408 -172 579 -197 24 -4 47 -8 50 -10 11 -7 213 -19 305 -18 84 0 205 8 250
17 11 2 40 7 65 11 25 4 54 9 65 12 11 2 31 6 45 9 58 11 228 65 290 91 8 3
17 7 20 8 3 1 22 9 42 19 21 9 39 16 40 15 2 0 40 20 86 45 45 25 86 46 91 46
5 0 11 3 13 8 2 4 35 28 73 53 167 110 373 302 473 444 l25 34 41 -28 c22 -15
46 -30 51 -32 9 -4 100 -63 278 -181 32 -21 61 -38 63 -38 3 0 10 -5 17 -11
18 -15 180 -120 197 -127 37 -15 61 -47 58 -79 -1 -17 1 -35 4 -38 4 -4 3 -17
-2 -30 -5 -13 -6 -25 -3 -28 3 -3 7 -36 9 -74 2 -37 11 -104 20 -148 9 -44 18
-89 20 -100 15 -81 147 -395 173 -415 4 -3 22 -30 41 -60 19 -30 39 -60 45
-66 5 -7 25 -30 44 -53 82 -101 202 -211 321 -293 117 -80 367 -193 470 -211
14 -3 43 -9 65 -15 22 -5 47 -10 55 -10 8 0 26 -3 40 -7 55 -14 323 -22 376
-11 12 2 44 7 72 11 29 3 65 10 82 15 17 5 31 9 33 8 18 -3 251 74 255 84 2 5
9 8 16 8 16 0 140 62 144 73 2 4 8 7 13 7 8 0 117 68 129 80 3 3 25 21 50 40
70 53 270 259 270 278 0 4 10 19 22 33 36 40 138 216 138 238 0 6 5 11 10 11
6 0 9 3 8 8 -1 4 10 39 24 77 51 135 107 372 93 395 -3 5 -2 11 3 14 10 6 8
289 -3 371 -4 33 -11 67 -16 76 -5 9 -6 19 -3 22 3 3 0 25 -7 48 -7 24 -13 49
-15 56 -4 20 -36 117 -43 128 -3 6 -7 17 -8 26 -8 53 -150 297 -232 399 -151
188 -378 356 -616 455 -45 19 -189 65 -220 70 -11 2 -31 6 -45 9 -64 14 -79
17 -145 23 -151 15 -321 7 -460 -22 -38 -9 -79 -17 -90 -19 -31 -7 -146 -46
-185 -63 -79 -35 -165 -77 -170 -82 -3 -4 -16 -11 -30 -18 -51 -22 -201 -137
-278 -212 -83 -81 -177 -194 -227 -273 l-29 -47 -30 17 c-17 9 -39 25 -50 35
-11 9 -26 17 -33 17 -7 0 -13 4 -13 9 0 5 -8 11 -17 15 -18 5 -53 26 -63 36
-3 3 -43 30 -90 60 -47 30 -88 59 -92 65 -5 6 -8 7 -8 0 0 -6 -3 -6 -8 0 -4 6
-47 37 -97 68 l-90 57 -13 -25 c-14 -28 -28 -34 -18 -8 6 14 39 155 51 213 3
17 17 129 21 180 13 138 -2 416 -27 513 -5 20 -7 42 -4 47 3 5 1 11 -4 14 -4
3 -12 25 -16 48 -11 59 -8 51 -48 168 -19 58 -49 135 -66 172 -17 36 -31 71
-31 76 0 6 -3 12 -7 14 -5 2 -23 32 -42 68 -19 36 -37 67 -40 70 -3 3 -12 17
-20 32 -8 15 -22 37 -33 47 -10 11 -18 23 -18 27 0 3 -10 18 -22 33 -13 15
-32 40 -43 56 -40 58 -272 283 -350 340 -44 33 -81 63 -83 67 -2 4 -8 8 -13 8
-5 0 -33 16 -64 35 -55 35 -244 135 -256 135 -4 0 -24 8 -45 17 -22 9 -42 18
-46 19 -5 1 -10 3 -13 4 -3 1 -8 3 -12 5 -5 1 -15 4 -23 8 -38 14 -151 46
-208 57 -34 7 -65 17 -68 22 -10 15 -10 278 -1 278 5 0 5 5 1 12 -4 6 -7 29
-7 51 0 41 20 67 51 67 21 0 242 111 242 121 0 5 5 9 10 9 21 0 127 84 205
164 196 198 312 437 351 722 9 66 8 227 -1 289 -4 28 -8 59 -10 70 -1 11 -3
20 -4 20 -1 0 -4 16 -7 35 -12 93 -133 373 -185 429 -11 11 -19 23 -19 26 0 4
-6 12 -12 20 -7 7 -28 31 -46 53 -62 77 -227 222 -252 222 -5 0 -10 4 -10 9 0
16 -283 148 -310 143 -3 0 -9 3 -15 8 -5 4 -26 10 -45 14 -19 3 -46 9 -60 12
-66 15 -155 22 -263 21 -64 0 -118 -2 -120 -3z m-92 -378 c11 -2 21 -5 23 -6
1 -2 5 -3 10 -4 22 -3 102 -41 102 -48 0 -4 6 -8 13 -8 20 0 122 -113 145
-162 33 -67 48 -135 46 -208 -1 -36 -4 -72 -6 -80 -3 -8 -8 -32 -13 -52 -4
-21 -11 -38 -16 -38 -5 0 -9 -7 -9 -15 0 -9 -17 -39 -39 -68 -133 -180 -378
-230 -575 -118 -60 35 -137 114 -166 171 -46 90 -67 249 -40 300 6 11 8 20 5
20 -9 0 28 85 58 130 65 98 173 169 292 192 23 5 141 1 170 -6z m-150 -3001
c137 -29 247 -88 345 -185 41 -41 82 -84 90 -96 39 -54 94 -171 105 -221 3
-13 8 -33 11 -45 14 -58 18 -186 8 -257 -7 -48 -35 -143 -47 -158 -5 -7 -7
-13 -3 -13 8 0 -40 -85 -73 -131 -32 -44 -89 -109 -95 -109 -3 0 -22 -16 -43
-35 -21 -19 -44 -35 -50 -35 -7 0 -13 -4 -13 -8 0 -10 -79 -49 -149 -73 -74
-26 -131 -34 -236 -33 -120 1 -164 10 -270 55 -16 6 -34 13 -40 14 -20 5 -135
86 -135 95 0 6 -4 10 -10 10 -22 0 -114 110 -158 190 -35 62 -71 165 -80 225
-7 53 -7 181 1 225 13 74 18 96 26 115 5 11 17 41 28 67 10 27 21 48 26 48 4
0 7 6 7 14 0 28 102 145 190 217 49 41 170 97 252 118 86 22 226 25 313 6z
m4919 -2167 c88 -27 165 -72 227 -132 53 -51 129 -163 129 -190 0 -6 5 -17 12
-24 7 -7 9 -12 5 -12 -3 0 0 -20 8 -45 17 -59 17 -191 -1 -260 -19 -73 -65
-160 -115 -218 -41 -47 -140 -127 -162 -131 -7 -1 -25 -9 -42 -17 -94 -49
-302 -58 -377 -18 -10 5 -18 7 -18 4 0 -9 -100 46 -145 79 -51 39 -125 117
-125 134 0 6 -4 12 -9 12 -5 0 -18 24 -30 53 -12 28 -26 61 -32 72 -5 11 -12
40 -15 65 -26 204 22 358 150 485 85 85 193 142 296 158 65 10 189 2 244 -15z
m-8513 -372 c207 -62 304 -292 204 -486 -48 -94 -181 -175 -283 -172 -172 4
-299 102 -335 257 -20 85 -13 149 24 223 35 72 83 121 149 152 25 12 51 24 59
28 26 14 133 12 182 -2z"/>
</g>
</svg>
