<svg xmlns="http://www.w3.org/2000/svg" xmlns:xlink="http://www.w3.org/1999/xlink" width="345.4" height="86" viewBox="0 0 345.4 86">
  <defs>
    <linearGradient id="linear-gradient" x1="0.5" y1="1.722" x2="0.5" y2="-1.337" gradientUnits="objectBoundingBox">
      <stop offset="0" stop-color="#00aeef"/>
      <stop offset="1" stop-color="#8dc63f"/>
    </linearGradient>
    <linearGradient id="linear-gradient-2" x1="0.5" y1="4.577" x2="0.5" y2="-0.339" xlink:href="#linear-gradient"/>
    <linearGradient id="linear-gradient-3" x1="0.5" y1="1.208" x2="0.5" y2="-2.726" xlink:href="#linear-gradient"/>
    <linearGradient id="linear-gradient-4" x1="0.501" y1="1.666" x2="0.501" y2="-4.812" xlink:href="#linear-gradient"/>
    <linearGradient id="linear-gradient-5" x1="0.501" y1="4.854" x2="0.501" y2="-1.51" xlink:href="#linear-gradient"/>
    <linearGradient id="linear-gradient-6" x1="0.501" y1="2.623" x2="0.501" y2="-5.333" xlink:href="#linear-gradient"/>
    <linearGradient id="linear-gradient-7" x1="0.5" y1="2.105" x2="0.5" y2="-4.27" xlink:href="#linear-gradient"/>
    <filter id="Tusatelit" x="72.4" y="0" width="273" height="86" filterUnits="userSpaceOnUse">
      <feOffset dy="3" input="SourceAlpha"/>
      <feGaussianBlur stdDeviation="3" result="blur"/>
      <feFlood flood-opacity="0.161"/>
      <feComposite operator="in" in2="blur"/>
      <feComposite in="SourceGraphic"/>
    </filter>
  </defs>
  <g id="Group_26" data-name="Group 26" transform="translate(-406.6 -24)">
    <g id="Group_25" data-name="Group 25" transform="translate(68 -34)">
      <g id="Group_23" data-name="Group 23" transform="translate(338.6 63.6)">
        <path id="Path_42" data-name="Path 42" d="M628.066,256.2a14.794,14.794,0,1,0,14.666,14.793A14.73,14.73,0,0,0,628.066,256.2Zm-4.006,15.093a5.314,5.314,0,1,1,5.268-5.314A5.279,5.279,0,0,1,624.059,271.293Z" transform="translate(-592.465 -235.443)" fill="url(#linear-gradient)"/>
        <path id="Path_43" data-name="Path 43" d="M644.926,122.6a9.219,9.219,0,1,0,9.126,9.205A9.159,9.159,0,0,0,644.926,122.6Zm-2.5,9.38a3.293,3.293,0,1,1,3.264-3.293A3.276,3.276,0,0,1,642.428,131.98Z" transform="translate(-609.388 -122.6)" fill="url(#linear-gradient-2)"/>
        <path id="Path_44" data-name="Path 44" d="M11.51,0a11.4,11.4,0,1,0-.021,22.8A11.4,11.4,0,1,0,11.51,0ZM8.381,11.628a4.106,4.106,0,1,1,4.144-4.109A4.12,4.12,0,0,1,8.381,11.628Z" transform="matrix(-0.105, 0.995, -0.995, -0.105, 76.69, 37.917)" fill="url(#linear-gradient-3)"/>
        <path id="Path_45" data-name="Path 45" d="M515.025,367.1a6.985,6.985,0,1,0,6.925,6.985A6.944,6.944,0,0,0,515.025,367.1Zm-1.88,7.11a2.52,2.52,0,1,1,2.5-2.52A2.5,2.5,0,0,1,513.145,374.21Z" transform="translate(-508.1 -324.925)" fill="url(#linear-gradient-4)"/>
        <path id="Path_46" data-name="Path 46" d="M661.7,183.7h5.416v14.22H661.7Z" transform="translate(-628.933 -172.853)" fill="url(#linear-gradient-5)"/>
        <path id="Path_47" data-name="Path 47" d="M742.929,347.585l-2.918,4.59L729.5,345.39l2.943-4.59Z" transform="translate(-682.503 -301.409)" fill="url(#linear-gradient-6)"/>
        <path id="Path_48" data-name="Path 48" d="M549.467,354.795l-3.067-4.515,14.1-9.679,3.042,4.515Z" transform="translate(-537.917 -304.822)" fill="url(#linear-gradient-7)"/>
      </g>
    </g>
    <g transform="matrix(1, 0, 0, 1, 406.6, 24)" filter="url(#Tusatelit)">
      <text id="Tusatelit-2" data-name="Tusatelit" transform="translate(81.4 6)" fill="#fff" font-size="54" font-family="Montserrat-Bold, Montserrat" font-weight="700" letter-spacing="0.005em"><tspan x="0" y="52">Tusatelit</tspan></text>
    </g>
  </g>
</svg>
